<svg width="1200" height="630" viewBox="0 0 1200 630" fill="none" xmlns="http://www.w3.org/2000/svg">
  <rect width="1200" height="630" rx="32" fill="#052E2B"/>
  <rect x="32" y="32" width="1136" height="566" rx="28" fill="url(#paint0_linear)"/>
  <circle cx="987" cy="129" r="148" fill="#34D399" fill-opacity="0.16"/>
  <circle cx="197" cy="551" r="188" fill="#10B981" fill-opacity="0.12"/>
  <rect x="96" y="108" width="120" height="120" rx="28" fill="#ECFDF5"/>
  <path d="M138 171.596V165.196L173.2 116.396H184.72V130.956H177.92L149.2 171.116V171.756H198V181.996H138ZM178.4 196V178.916L178.64 174.436V116.396H189.28V196H178.4Z" fill="#047857"/>
  <text x="96" y="309" fill="#F8FAFC" font-family="Geist, Arial, sans-serif" font-size="56" font-weight="700">Network Marketing Master</text>
  <text x="96" y="377" fill="#D1FAE5" font-family="Geist, Arial, sans-serif" font-size="28" font-weight="500">CRM, pipeline takibi ve AI mesaj asistanı</text>
  <g opacity="0.94">
    <rect x="96" y="434" width="284" height="74" rx="18" fill="#ECFDF5"/>
    <text x="136" y="479" fill="#065F46" font-family="Geist, Arial, sans-serif" font-size="28" font-weight="700">Kontak ve takip akışı</text>
    <rect x="396" y="434" width="228" height="74" rx="18" fill="#064E3B"/>
    <text x="436" y="479" fill="#D1FAE5" font-family="Geist, Arial, sans-serif" font-size="28" font-weight="700">AI mesaj üretimi</text>
    <rect x="640" y="434" width="210" height="74" rx="18" fill="#047857"/>
    <text x="680" y="479" fill="#ECFDF5" font-family="Geist, Arial, sans-serif" font-size="28" font-weight="700">Akademi</text>
  </g>
  <defs>
    <linearGradient id="paint0_linear" x1="96" y1="72" x2="1111" y2="557" gradientUnits="userSpaceOnUse">
      <stop stop-color="#064E3B"/>
      <stop offset="1" stop-color="#022C22"/>
    </linearGradient>
  </defs>
</svg>
